<svg xmlns="http://www.w3.org/2000/svg" viewBox="0 0 24 24" id="tennis-ball"><path d="M21,7.71A10,10,0,1,0,12,22a9.88,9.88,0,0,0,4.27-1A10,10,0,0,0,21,7.71Zm-1.81.85a8,8,0,0,1,.56,5.26,8,8,0,0,1-4.28-9A7.88,7.88,0,0,1,19.22,8.56ZM4.78,15.44a8,8,0,0,1-.56-5.26,8,8,0,0,1,4.28,9A7.85,7.85,0,0,1,4.78,15.44Zm10.66,3.78a7.93,7.93,0,0,1-5,.6,10,10,0,0,0-.66-6.75A9.91,9.91,0,0,0,4.92,8.31,7.84,7.84,0,0,1,8.56,4.78,7.94,7.94,0,0,1,12,4a8.72,8.72,0,0,1,1.61.18,10,10,0,0,0,5.48,11.51A7.84,7.84,0,0,1,15.44,19.22Z" data-name="2"></path></svg>